<svg width="184" height="180" viewBox="0 0 184 180" fill="none" xmlns="http://www.w3.org/2000/svg">
<g clip-path="url(#clip0_0_64)">
<path d="M176.224 91.8881C176.224 93.9737 177.914 95.6643 180 95.6643C182.086 95.6643 183.776 93.9737 183.776 91.8881H176.224ZM164.943 49.723C172.117 62.1238 176.224 76.5206 176.224 91.8881H183.776C183.776 75.1576 179.301 59.4607 171.481 45.9413L164.943 49.723Z" fill="#713FFD"/>
<path d="M168.212 47.8322C160.474 34.4555 149.321 23.302 135.944 15.564" stroke="#865CFD" stroke-opacity="0.85" stroke-width="6"/>
<path d="M91.8881 3.77621C107.937 3.77621 122.984 8.06701 135.944 15.5641" stroke="#9874FF" stroke-opacity="0.83" stroke-width="6"/>
<path d="M91.888 3.77621C75.7864 3.77621 60.6934 8.09525 47.7045 15.638" stroke="#AC8EFF" stroke-opacity="0.78" stroke-width="6"/>
<path d="M15.5638 47.8322C23.2773 34.4981 34.3845 23.3729 47.7044 15.638" stroke="#CDBBFF" stroke-opacity="0.63" stroke-width="6"/>
<path d="M0 91.8881C0 93.9737 1.69068 95.6643 3.77622 95.6643C5.86177 95.6643 7.55245 93.9737 7.55245 91.8881H0ZM7.55245 91.8881C7.55245 76.5206 11.6593 62.1238 18.8328 49.723L12.2953 45.9413C4.47477 59.4607 0 75.1576 0 91.8881H7.55245Z" fill="white" fill-opacity="0.24"/>
</g>
<circle cx="129" cy="11" r="7.5" fill="#FDFDFD" stroke="#EFEDED"/>
<g filter="url(#filter0_d_0_64)">
<path d="M77.7604 56.1889C77.1891 56.1844 76.6314 56.0697 76.0871 55.8448C75.5428 55.6154 75.0525 55.2488 74.6162 54.745C74.1799 54.2367 73.8335 53.5665 73.5771 52.7344C73.3208 51.9022 73.1926 50.8789 73.1926 49.6644C73.1926 48.5399 73.2915 47.5098 73.4894 46.5742C73.6874 45.6386 73.9842 44.829 74.3801 44.1452C74.7759 43.4615 75.2707 42.933 75.8644 42.5597C76.4582 42.1818 77.1531 41.9929 77.9493 41.9929C78.696 41.9929 79.355 42.1481 79.9262 42.4585C80.4975 42.7643 80.9608 43.1916 81.3161 43.7404C81.6715 44.2892 81.8941 44.9212 81.9841 45.6364H80.7426C80.6167 44.9077 80.3176 44.3072 79.8453 43.8349C79.373 43.3626 78.741 43.1264 77.9493 43.1264C76.8158 43.1264 75.9387 43.6527 75.3179 44.7053C74.6972 45.7533 74.3846 47.2422 74.3801 49.1719H74.4678C74.6882 48.7625 74.9716 48.4094 75.3179 48.1126C75.6688 47.8112 76.0669 47.5773 76.5122 47.4109C76.9575 47.2399 77.4253 47.1545 77.9156 47.1545C78.6847 47.1545 79.3887 47.3501 80.0274 47.7415C80.6662 48.1283 81.1767 48.6613 81.559 49.3406C81.9414 50.0153 82.1325 50.7867 82.1325 51.6548C82.1325 52.478 81.9504 53.2359 81.586 53.9286C81.2262 54.6213 80.7179 55.1723 80.0612 55.5817C79.4089 55.991 78.642 56.1934 77.7604 56.1889ZM77.7604 55.0554C78.3631 55.0554 78.9007 54.9025 79.373 54.5966C79.8498 54.2907 80.2253 53.8814 80.4997 53.3686C80.7741 52.8513 80.9113 52.2801 80.9113 51.6548C80.9113 51.0296 80.7741 50.4628 80.4997 49.9545C80.2253 49.4463 79.8498 49.0414 79.373 48.7401C78.9007 48.4387 78.3631 48.288 77.7604 48.288C77.3016 48.288 76.8743 48.3825 76.4784 48.5714C76.0826 48.7558 75.7385 49.0099 75.4461 49.3338C75.1582 49.6532 74.9378 50.0198 74.7849 50.4336C74.6365 50.8474 74.5802 51.2815 74.6162 51.7358C74.6657 52.37 74.8299 52.939 75.1088 53.4428C75.3921 53.9421 75.761 54.3357 76.2153 54.6236C76.6741 54.9115 77.1891 55.0554 77.7604 55.0554ZM89.5207 41.5341L85.0676 58.0781H83.9408L88.3939 41.5341H89.5207ZM95.8192 42.1818V56H94.5574V43.5043H94.4765L91.2378 45.6566V44.3477L94.5035 42.1818H95.8192ZM104.307 56.1889C103.335 56.1889 102.506 55.91 101.817 55.3523C101.134 54.79 100.607 53.9781 100.239 52.9165C99.8742 51.855 99.692 50.5798 99.692 49.0909C99.692 47.6065 99.8742 46.3358 100.239 45.2788C100.607 44.2172 101.136 43.4053 101.824 42.843C102.517 42.2763 103.344 41.9929 104.307 41.9929C105.27 41.9929 106.095 42.2763 106.783 42.843C107.476 43.4053 108.005 44.2172 108.369 45.2788C108.738 46.3358 108.922 47.6065 108.922 49.0909C108.922 50.5798 108.738 51.855 108.369 52.9165C108.005 53.9781 107.478 54.79 106.79 55.3523C106.106 55.91 105.279 56.1889 104.307 56.1889ZM104.307 55.0554C105.373 55.0554 106.205 54.5359 106.804 53.4968C107.402 52.4532 107.701 50.9846 107.701 49.0909C107.701 47.8314 107.564 46.7564 107.289 45.8658C107.019 44.9706 106.63 44.2869 106.122 43.8146C105.618 43.3423 105.013 43.1062 104.307 43.1062C103.25 43.1062 102.42 43.6325 101.817 44.685C101.215 45.7331 100.913 47.2017 100.913 49.0909C100.913 50.3504 101.048 51.4254 101.318 52.3161C101.592 53.2067 101.982 53.8859 102.485 54.3537C102.994 54.8215 103.601 55.0554 104.307 55.0554ZM69.4385 90V74H70.8994V81.3359H79.9775V74H81.4385V90H79.9775V82.6484H70.8994V90H69.4385ZM85.4072 90V78H86.8057V90H85.4072ZM86.1182 75.9375C85.8317 75.9375 85.5869 75.8411 85.3838 75.6484C85.1807 75.4505 85.0791 75.2135 85.0791 74.9375C85.0791 74.6615 85.1807 74.4271 85.3838 74.2344C85.5869 74.0365 85.8317 73.9375 86.1182 73.9375C86.4046 73.9375 86.6494 74.0365 86.8525 74.2344C87.0557 74.4271 87.1572 74.6615 87.1572 74.9375C87.1572 75.2135 87.0557 75.4505 86.8525 75.6484C86.6494 75.8411 86.4046 75.9375 86.1182 75.9375ZM95.0615 94.75C94.2438 94.75 93.5277 94.6432 92.9131 94.4297C92.2985 94.2214 91.7803 93.9349 91.3584 93.5703C90.9365 93.2057 90.6084 92.7969 90.374 92.3438L91.5146 91.5938C91.6865 91.8958 91.9157 92.1927 92.2021 92.4844C92.4938 92.776 92.8714 93.0182 93.335 93.2109C93.8037 93.4036 94.3792 93.5 95.0615 93.5C96.124 93.5 96.9808 93.2344 97.6318 92.7031C98.2881 92.1719 98.6162 91.3464 98.6162 90.2266V87.5234H98.4912C98.3298 87.888 98.098 88.2526 97.7959 88.6172C97.4938 88.9766 97.098 89.276 96.6084 89.5156C96.124 89.7552 95.5225 89.875 94.8037 89.875C93.8454 89.875 92.9938 89.638 92.249 89.1641C91.5094 88.6901 90.9261 88.013 90.499 87.1328C90.0771 86.2474 89.8662 85.1927 89.8662 83.9687C89.8662 82.7552 90.0719 81.6875 90.4834 80.7656C90.9001 79.8437 91.4808 79.125 92.2256 78.6094C92.9704 78.0937 93.8376 77.8359 94.8271 77.8359C95.5615 77.8359 96.1709 77.9661 96.6553 78.2266C97.1396 78.4818 97.5277 78.7995 97.8193 79.1797C98.1162 79.5599 98.348 79.9297 98.5146 80.2891H98.6553V78H100.015V90.3125C100.015 91.3281 99.7985 92.1641 99.3662 92.8203C98.9339 93.4766 98.3454 93.9609 97.6006 94.2734C96.8558 94.5911 96.0094 94.75 95.0615 94.75ZM94.9678 88.6016C95.7386 88.6016 96.3975 88.4167 96.9443 88.0469C97.4912 87.6719 97.9105 87.1354 98.2021 86.4375C98.4938 85.7396 98.6396 84.9089 98.6396 83.9453C98.6396 83.0078 98.4964 82.1771 98.21 81.4531C97.9235 80.724 97.5068 80.151 96.96 79.7344C96.4183 79.3125 95.7542 79.1016 94.9678 79.1016C94.1657 79.1016 93.4886 79.3177 92.9365 79.75C92.3844 80.1823 91.9678 80.7656 91.6865 81.5C91.4053 82.2292 91.2646 83.0443 91.2646 83.9453C91.2646 84.862 91.4079 85.6719 91.6943 86.375C91.9808 87.0729 92.4001 87.6198 92.9521 88.0156C93.5042 88.4062 94.1761 88.6016 94.9678 88.6016ZM105.087 82.5V90H103.696V74H105.087V79.8828H105.212C105.493 79.263 105.928 78.7682 106.517 78.3984C107.11 78.0286 107.86 77.8438 108.767 77.8438C109.579 77.8438 110.293 78.0104 110.907 78.3437C111.522 78.6771 112.001 79.1693 112.345 79.8203C112.688 80.4714 112.86 81.2734 112.86 82.2266V90H111.462V82.3125C111.462 81.3229 111.186 80.5443 110.634 79.9766C110.087 79.4036 109.347 79.1172 108.415 79.1172C107.774 79.1172 107.204 79.2526 106.704 79.5234C106.204 79.7943 105.808 80.1849 105.517 80.6953C105.23 81.2005 105.087 81.8021 105.087 82.5Z" fill="white"/>
</g>
<defs>
<filter id="filter0_d_0_64" x="67.1785" y="41.5341" width="45.6819" height="56.2259" filterUnits="userSpaceOnUse" color-interpolation-filters="sRGB">
<feFlood flood-opacity="0" result="BackgroundImageFix"/>
<feColorMatrix in="SourceAlpha" type="matrix" values="0 0 0 0 0 0 0 0 0 0 0 0 0 0 0 0 0 0 127 0" result="hardAlpha"/>
<feOffset dx="-1.51" dy="2.26"/>
<feGaussianBlur stdDeviation="0.375"/>
<feColorMatrix type="matrix" values="0 0 0 0 0 0 0 0 0 0 0 0 0 0 0 0 0 0 0.1 0"/>
<feBlend mode="normal" in2="BackgroundImageFix" result="effect1_dropShadow_0_64"/>
<feBlend mode="normal" in="SourceGraphic" in2="effect1_dropShadow_0_64" result="shape"/>
</filter>
<clipPath id="clip0_0_64">
<rect width="183.776" height="180" fill="white"/>
</clipPath>
</defs>
</svg>
