<svg width="184" height="180" viewBox="0 0 184 180" fill="none" xmlns="http://www.w3.org/2000/svg">
<path d="M176.224 91.8881C176.224 93.9737 177.915 95.6643 180 95.6643C182.086 95.6643 183.777 93.9737 183.777 91.8881H176.224ZM164.943 49.723C172.117 62.1238 176.224 76.5206 176.224 91.8881H183.777C183.777 75.1576 179.302 59.4607 171.481 45.9413L164.943 49.723Z" fill="#713FFD"/>
<path d="M168.212 47.8322C160.475 34.4555 149.321 23.302 135.944 15.564" stroke="#865CFD" stroke-opacity="0.85" stroke-width="6"/>
<path d="M91.8877 3.77625C107.937 3.77625 122.984 8.06704 135.944 15.5641" stroke="#9874FF" stroke-opacity="0.83" stroke-width="6"/>
<path d="M91.8877 3.77625C75.786 3.77625 60.6931 8.09528 47.7041 15.638" stroke="#AC8EFF" stroke-opacity="0.78" stroke-width="6"/>
<path d="M15.5635 47.8321C23.2769 34.498 34.3842 23.3729 47.704 15.6379" stroke="#CDBBFF" stroke-opacity="0.63" stroke-width="6"/>
<path d="M0 91.8881C0 93.9737 1.69068 95.6643 3.77622 95.6643C5.86177 95.6643 7.55245 93.9737 7.55245 91.8881H0ZM7.55245 91.8881C7.55245 76.5206 11.6593 62.1238 18.8328 49.723L12.2953 45.9413C4.47477 59.4607 0 75.1576 0 91.8881H7.55245Z" fill="white" fill-opacity="0.24"/>
<g filter="url(#filter0_d_0_52)">
<path d="M78.7967 62V61.0756L83.3105 56.0018C83.8998 55.3361 84.3743 54.767 84.7342 54.2947C85.094 53.8224 85.3549 53.3861 85.5168 52.9858C85.6833 52.5855 85.7665 52.1694 85.7665 51.7376C85.7665 51.2113 85.6428 50.7525 85.3954 50.3611C85.1525 49.9653 84.8174 49.6572 84.39 49.4368C83.9627 49.2164 83.4814 49.1062 82.9462 49.1062C82.3794 49.1062 81.8824 49.2276 81.455 49.4705C81.0322 49.7134 80.7039 50.0463 80.4699 50.4691C80.236 50.8919 80.1191 51.3777 80.1191 51.9265H78.9114C78.9114 51.1618 79.0868 50.4848 79.4376 49.8956C79.793 49.3018 80.2765 48.8363 80.8883 48.4989C81.5045 48.1616 82.2017 47.9929 82.9799 47.9929C83.7491 47.9929 84.4328 48.1593 85.031 48.4922C85.6293 48.8205 86.0993 49.2681 86.4412 49.8349C86.783 50.4016 86.954 51.0359 86.954 51.7376C86.954 52.2459 86.864 52.7384 86.6841 53.2152C86.5087 53.692 86.205 54.2228 85.7732 54.8075C85.3414 55.3923 84.7431 56.1075 83.9785 56.9531L80.5509 60.7788V60.8665H87.3858V62H78.7967ZM94.9274 47.5341L90.4743 64.0781H89.3475L93.8006 47.5341H94.9274ZM101.003 62.1889C100.234 62.1889 99.5459 62.0337 98.9386 61.7234C98.3359 61.4085 97.8546 60.9767 97.4947 60.4279C97.1394 59.8791 96.9504 59.2517 96.928 58.5455H98.1492C98.1897 59.2786 98.4776 59.8814 99.0128 60.3537C99.5481 60.8215 100.212 61.0554 101.003 61.0554C101.619 61.0554 102.168 60.9092 102.65 60.6168C103.131 60.32 103.506 59.9151 103.776 59.4023C104.051 58.8851 104.188 58.3026 104.188 57.6548C104.183 56.9801 104.037 56.3864 103.749 55.8736C103.461 55.3563 103.07 54.9515 102.575 54.6591C102.085 54.3667 101.534 54.2205 100.922 54.2205C100.459 54.216 100.005 54.2925 99.5593 54.4499C99.114 54.6074 98.7429 54.8098 98.4461 55.0572L97.1843 54.8952L98.0142 48.1818H104.842V49.3153H99.0736L98.5203 53.9371H98.5878C98.8936 53.6808 99.2647 53.4716 99.701 53.3097C100.142 53.1477 100.607 53.0668 101.098 53.0668C101.912 53.0668 102.643 53.2624 103.291 53.6538C103.943 54.0451 104.458 54.5849 104.836 55.2731C105.218 55.9568 105.409 56.744 105.409 57.6346C105.409 58.5072 105.218 59.2876 104.836 59.9759C104.458 60.6596 103.936 61.1993 103.27 61.5952C102.609 61.991 101.853 62.1889 101.003 62.1889ZM44.4854 80H46.1729L51.9775 93.9375H52.1182L57.9229 80H59.6104V96H58.2354V83.0859H58.1104L52.7119 96H51.3838L45.9854 83.0859H45.8604V96H44.4854V80ZM68.2393 96.25C67.2028 96.25 66.2861 95.987 65.4893 95.4609C64.6976 94.9349 64.0778 94.2083 63.6299 93.2812C63.182 92.349 62.958 91.2734 62.958 90.0547C62.958 88.8255 63.182 87.7448 63.6299 86.8125C64.0778 85.875 64.6976 85.1458 65.4893 84.625C66.2861 84.099 67.2028 83.8359 68.2393 83.8359C69.2757 83.8359 70.1898 84.099 70.9814 84.625C71.7731 85.151 72.3929 85.8802 72.8408 86.8125C73.2939 87.7448 73.5205 88.8255 73.5205 90.0547C73.5205 91.2734 73.2965 92.349 72.8486 93.2812C72.4007 94.2083 71.7783 94.9349 70.9814 95.4609C70.1898 95.987 69.2757 96.25 68.2393 96.25ZM68.2393 94.9766C69.0726 94.9766 69.7783 94.7526 70.3564 94.3047C70.9346 93.8568 71.3721 93.2604 71.6689 92.5156C71.971 91.7708 72.1221 90.9505 72.1221 90.0547C72.1221 89.1589 71.971 88.3359 71.6689 87.5859C71.3721 86.8359 70.9346 86.2344 70.3564 85.7812C69.7783 85.3281 69.0726 85.1016 68.2393 85.1016C67.4111 85.1016 66.7054 85.3281 66.1221 85.7812C65.5439 86.2344 65.1038 86.8359 64.8018 87.5859C64.5049 88.3359 64.3564 89.1589 64.3564 90.0547C64.3564 90.9505 64.5049 91.7708 64.8018 92.5156C65.1038 93.2604 65.5439 93.8568 66.1221 94.3047C66.7002 94.7526 67.4059 94.9766 68.2393 94.9766ZM80.8936 96.25C79.9092 96.25 79.0472 95.9896 78.3076 95.4687C77.568 94.9479 76.9899 94.2214 76.5732 93.2891C76.1618 92.3568 75.9561 91.2708 75.9561 90.0313C75.9561 88.7969 76.1618 87.7161 76.5732 86.7891C76.9899 85.8568 77.5706 85.1328 78.3154 84.6172C79.0602 84.0964 79.9274 83.8359 80.917 83.8359C81.6462 83.8359 82.2529 83.9661 82.7373 84.2266C83.2217 84.4818 83.6097 84.7995 83.9014 85.1797C84.193 85.5599 84.4196 85.9297 84.5811 86.2891H84.7061V80H86.1045V96H84.7451V93.7734H84.5811C84.4196 94.138 84.1904 94.513 83.8936 94.8984C83.5967 95.2786 83.2035 95.599 82.7139 95.8594C82.2295 96.1198 81.6227 96.25 80.8936 96.25ZM81.0576 94.9766C81.8337 94.9766 82.4951 94.7656 83.042 94.3437C83.5889 93.9167 84.0055 93.3307 84.292 92.5859C84.5837 91.8359 84.7295 90.9766 84.7295 90.0078C84.7295 89.0495 84.5863 88.2031 84.2998 87.4687C84.0133 86.7292 83.5967 86.151 83.0498 85.7344C82.5029 85.3125 81.8389 85.1016 81.0576 85.1016C80.2555 85.1016 79.5785 85.3203 79.0264 85.7578C78.4795 86.1901 78.0628 86.776 77.7764 87.5156C77.4951 88.2552 77.3545 89.0859 77.3545 90.0078C77.3545 90.9401 77.4977 91.7812 77.7842 92.5313C78.0706 93.2812 78.4873 93.8776 79.0342 94.3203C79.5863 94.7578 80.2607 94.9766 81.0576 94.9766ZM94.917 96.25C93.7972 96.25 92.8285 95.9896 92.0107 95.4687C91.193 94.9427 90.5602 94.2161 90.1123 93.2891C89.6696 92.3568 89.4482 91.2839 89.4482 90.0703C89.4482 88.862 89.6696 87.7891 90.1123 86.8516C90.5602 85.9089 91.1774 85.1719 91.9639 84.6406C92.7555 84.1042 93.6696 83.8359 94.7061 83.8359C95.3571 83.8359 95.9847 83.9557 96.5889 84.1953C97.193 84.4297 97.7347 84.7917 98.2139 85.2812C98.6982 85.7656 99.0811 86.3776 99.3623 87.1172C99.6436 87.8516 99.7842 88.7214 99.7842 89.7266V90.4141H90.4092V89.1875H98.3623C98.3623 88.4167 98.2061 87.724 97.8936 87.1094C97.5863 86.4896 97.1566 86 96.6045 85.6406C96.0576 85.2812 95.4248 85.1016 94.7061 85.1016C93.9456 85.1016 93.2764 85.3047 92.6982 85.7109C92.1201 86.1172 91.667 86.6536 91.3389 87.3203C91.016 87.987 90.8519 88.7161 90.8467 89.5078V90.2422C90.8467 91.1953 91.0107 92.0286 91.3389 92.7422C91.6722 93.4505 92.1436 94 92.7529 94.3906C93.3623 94.7812 94.0837 94.9766 94.917 94.9766C95.4847 94.9766 95.9821 94.888 96.4092 94.7109C96.8415 94.5339 97.2035 94.2969 97.4951 94C97.792 93.6979 98.016 93.3672 98.167 93.0078L99.4873 93.4375C99.305 93.9427 99.0055 94.4089 98.5889 94.8359C98.1774 95.263 97.6618 95.6068 97.042 95.8672C96.4274 96.1224 95.7191 96.25 94.917 96.25ZM102.849 96V84H104.2V85.8437H104.302C104.541 85.2396 104.958 84.7526 105.552 84.3828C106.151 84.0078 106.828 83.8203 107.583 83.8203C107.698 83.8203 107.825 83.8229 107.966 83.8281C108.106 83.8333 108.224 83.8385 108.317 83.8438V85.2578C108.255 85.2474 108.146 85.2318 107.989 85.2109C107.833 85.1901 107.664 85.1797 107.481 85.1797C106.856 85.1797 106.299 85.3125 105.81 85.5781C105.325 85.8385 104.942 86.2005 104.661 86.6641C104.38 87.1276 104.239 87.6562 104.239 88.25V96H102.849ZM114.042 96.2734C113.318 96.2734 112.657 96.1328 112.058 95.8516C111.459 95.5651 110.982 95.1536 110.628 94.6172C110.274 94.0755 110.097 93.4193 110.097 92.6484C110.097 92.0547 110.209 91.5547 110.433 91.1484C110.657 90.7422 110.974 90.4089 111.386 90.1484C111.797 89.888 112.284 89.6823 112.847 89.5312C113.409 89.3802 114.029 89.263 114.706 89.1797C115.378 89.0964 115.946 89.0234 116.409 88.9609C116.878 88.8984 117.235 88.7995 117.479 88.6641C117.724 88.5286 117.847 88.3099 117.847 88.0078V87.7266C117.847 86.9089 117.602 86.2656 117.112 85.7969C116.628 85.3229 115.93 85.0859 115.019 85.0859C114.154 85.0859 113.448 85.276 112.901 85.6562C112.36 86.0365 111.979 86.4844 111.761 87L110.44 86.5234C110.711 85.8672 111.086 85.3437 111.565 84.9531C112.045 84.5573 112.581 84.2734 113.175 84.1016C113.769 83.9245 114.37 83.8359 114.979 83.8359C115.438 83.8359 115.914 83.8958 116.409 84.0156C116.909 84.1354 117.373 84.3437 117.8 84.6406C118.227 84.9323 118.573 85.3411 118.839 85.8672C119.104 86.388 119.237 87.0495 119.237 87.8516V96H117.847V94.1016H117.761C117.594 94.4557 117.347 94.7995 117.019 95.1328C116.69 95.4661 116.279 95.7396 115.784 95.9531C115.289 96.1667 114.709 96.2734 114.042 96.2734ZM114.229 95C114.969 95 115.61 94.8359 116.151 94.5078C116.693 94.1797 117.11 93.7448 117.401 93.2031C117.698 92.6562 117.847 92.0547 117.847 91.3984V89.6641C117.743 89.763 117.568 89.8516 117.323 89.9297C117.084 90.0078 116.805 90.0781 116.487 90.1406C116.175 90.1979 115.862 90.2474 115.55 90.2891C115.237 90.3307 114.956 90.3672 114.706 90.3984C114.029 90.4818 113.451 90.612 112.972 90.7891C112.493 90.9661 112.125 91.2109 111.87 91.5234C111.615 91.8307 111.487 92.2266 111.487 92.7109C111.487 93.4401 111.748 94.0052 112.269 94.4062C112.789 94.8021 113.443 95 114.229 95ZM127.663 84V85.2109H121.937V84H127.663ZM123.726 81.125H125.124V92.8672C125.124 93.3672 125.21 93.7604 125.382 94.0469C125.554 94.3281 125.778 94.5286 126.054 94.6484C126.33 94.763 126.624 94.8203 126.937 94.8203C127.119 94.8203 127.275 94.8099 127.405 94.7891C127.535 94.763 127.65 94.737 127.749 94.7109L128.046 95.9687C127.91 96.0208 127.744 96.0677 127.546 96.1094C127.348 96.1563 127.103 96.1797 126.812 96.1797C126.301 96.1797 125.809 96.0677 125.335 95.8437C124.866 95.6198 124.481 95.2865 124.179 94.8437C123.877 94.401 123.726 93.8516 123.726 93.1953V81.125ZM135.544 96.25C134.424 96.25 133.455 95.9896 132.638 95.4687C131.82 94.9427 131.187 94.2161 130.739 93.2891C130.297 92.3568 130.075 91.2839 130.075 90.0703C130.075 88.862 130.297 87.7891 130.739 86.8516C131.187 85.9089 131.804 85.1719 132.591 84.6406C133.382 84.1042 134.297 83.8359 135.333 83.8359C135.984 83.8359 136.612 83.9557 137.216 84.1953C137.82 84.4297 138.362 84.7917 138.841 85.2812C139.325 85.7656 139.708 86.3776 139.989 87.1172C140.271 87.8516 140.411 88.7214 140.411 89.7266V90.4141H131.036V89.1875H138.989C138.989 88.4167 138.833 87.724 138.521 87.1094C138.213 86.4896 137.784 86 137.231 85.6406C136.685 85.2812 136.052 85.1016 135.333 85.1016C134.573 85.1016 133.903 85.3047 133.325 85.7109C132.747 86.1172 132.294 86.6536 131.966 87.3203C131.643 87.987 131.479 88.7161 131.474 89.5078V90.2422C131.474 91.1953 131.638 92.0286 131.966 92.7422C132.299 93.4505 132.771 94 133.38 94.3906C133.989 94.7812 134.711 94.9766 135.544 94.9766C136.112 94.9766 136.609 94.888 137.036 94.7109C137.468 94.5339 137.83 94.2969 138.122 94C138.419 93.6979 138.643 93.3672 138.794 93.0078L140.114 93.4375C139.932 93.9427 139.632 94.4089 139.216 94.8359C138.804 95.263 138.289 95.6068 137.669 95.8672C137.054 96.1224 136.346 96.25 135.544 96.25Z" fill="white"/>
</g>
<circle cx="59" cy="8" r="7.5" fill="#FDFDFD" stroke="#EFEDED"/>
<defs>
<filter id="filter0_d_0_52" x="42.2254" y="47.5341" width="98.1858" height="51.7493" filterUnits="userSpaceOnUse" color-interpolation-filters="sRGB">
<feFlood flood-opacity="0" result="BackgroundImageFix"/>
<feColorMatrix in="SourceAlpha" type="matrix" values="0 0 0 0 0 0 0 0 0 0 0 0 0 0 0 0 0 0 127 0" result="hardAlpha"/>
<feOffset dx="-1.51" dy="2.26"/>
<feGaussianBlur stdDeviation="0.375"/>
<feColorMatrix type="matrix" values="0 0 0 0 0 0 0 0 0 0 0 0 0 0 0 0 0 0 0.1 0"/>
<feBlend mode="normal" in2="BackgroundImageFix" result="effect1_dropShadow_0_52"/>
<feBlend mode="normal" in="SourceGraphic" in2="effect1_dropShadow_0_52" result="shape"/>
</filter>
</defs>
</svg>
